<?xml version="1.0" encoding="UTF-8" standalone="no"?>
<svg
   width="64"
   height="64"
   viewBox="0 0 63.999997 64"
   id="svg4160"
   version="1.1"
   sodipodi:docname="klipper.svg"
   inkscape:version="1.1.2 (0a00cf5339, 2022-02-04, custom)"
   xmlns:inkscape="http://www.inkscape.org/namespaces/inkscape"
   xmlns:sodipodi="http://sodipodi.sourceforge.net/DTD/sodipodi-0.dtd"
   xmlns="http://www.w3.org/2000/svg"
   xmlns:svg="http://www.w3.org/2000/svg"
   xmlns:rdf="http://www.w3.org/1999/02/22-rdf-syntax-ns#"
   xmlns:cc="http://creativecommons.org/ns#"
   xmlns:dc="http://purl.org/dc/elements/1.1/">
  <sodipodi:namedview
     pagecolor="#ffffff"
     bordercolor="#666666"
     borderopacity="1"
     objecttolerance="10"
     gridtolerance="10"
     guidetolerance="10"
     inkscape:pageopacity="0"
     inkscape:pageshadow="2"
     inkscape:window-width="1600"
     inkscape:window-height="826"
     id="namedview8"
     showgrid="false"
     inkscape:zoom="4.7265625"
     inkscape:cx="8.8859504"
     inkscape:cy="11.953719"
     inkscape:window-x="0"
     inkscape:window-y="0"
     inkscape:window-maximized="1"
     inkscape:current-layer="layer2"
     inkscape:document-rotation="0"
     inkscape:pagecheckerboard="true"
     inkscape:snap-bbox="true"
     inkscape:bbox-paths="true"
     inkscape:bbox-nodes="true"
     inkscape:snap-bbox-edge-midpoints="true"
     inkscape:snap-bbox-midpoints="true">
    <inkscape:grid
       type="xygrid"
       id="grid832" />
  </sodipodi:namedview>
  <defs
     id="defs4162" />
  <metadata
     id="metadata4165">
    <rdf:RDF>
      <cc:Work
         rdf:about="">
        <dc:format>image/svg+xml</dc:format>
        <dc:type
           rdf:resource="http://purl.org/dc/dcmitype/StillImage" />
      </cc:Work>
    </rdf:RDF>
  </metadata>
  <g
     id="layer2"
     style="display:inline;stroke:none"
     transform="translate(-3.5328446,2.2636422)">
    <path
       style="fill:#9e9e9e;stroke-width:0.999997"
       d="m 36.83892,45.099221 c -0.259929,-0.09289 -0.609745,-0.274614 -0.777368,-0.403837 -0.392416,-0.302517 -2.660467,-2.442218 -2.753051,-2.597253 -0.04865,-0.08147 4.095453,-4.002705 13.395404,-12.674982 7.40622,-6.906356 14.099129,-13.14793 14.873134,-13.870164 l 1.407281,-1.313151 1.293411,0.03839 c 1.130466,0.03355 1.350533,0.066 1.746828,0.257559 0.568879,0.274978 1.054757,0.755858 1.322458,1.308857 0.182755,0.37752 0.203383,0.539398 0.17586,1.380091 -0.02907,0.88788 -0.04998,0.979252 -0.308672,1.348639 -0.152623,0.217927 -6.50829,6.207522 -14.123708,13.310211 -11.207376,10.452809 -13.933608,12.951575 -14.304785,13.111251 -0.640265,0.275435 -1.36013,0.314034 -1.946792,0.104387 z M 26.327312,21.001239 c -0.286729,-0.165446 -6.508344,-6.005946 -6.570556,-6.168067 -0.151182,-0.393976 -0.212518,-0.390595 7.086874,-0.390595 3.812549,0 6.997006,0.02498 7.07657,0.05551 0.07956,0.03053 0.144663,0.13066 0.144663,0.222508 0,0.100948 -1.112524,1.209357 -2.812861,2.80246 -4.134038,3.873317 -3.802091,3.596318 -4.305143,3.592501 -0.234872,-0.0018 -0.513669,-0.05323 -0.619547,-0.114319 z"
       id="path1082"
       sodipodi:nodetypes="ssssscssssssssssssssss" />
    <path
       style="fill:#da0303;stroke-width:0.999997"
       d="M 16.779851,26.729621 C 10.668365,21.018804 5.1947775,15.909762 4.6163241,15.376195 4.0378707,14.842629 3.5503474,14.371558 3.5329398,14.329373 c -0.017408,-0.04219 2.3695694,-0.06484 5.3043952,-0.05034 l 5.336046,0.02636 0.515635,0.253302 c 0.401464,0.197218 1.798699,1.448018 6.310401,5.649051 3.708012,3.452683 5.942969,5.469237 6.206314,5.599823 0.596582,0.295829 1.789033,0.291372 2.398856,-0.009 0.293063,-0.144333 2.283992,-1.938276 6.173219,-5.562429 4.357611,-4.060616 5.872847,-5.419425 6.289377,-5.640088 l 0.548731,-0.290696 4.984302,-0.02646 c 4.361715,-0.02315 4.967168,-0.0098 4.84712,0.106504 -1.635806,1.585466 -24.395046,22.736431 -24.461292,22.732743 -0.05192,-0.0029 -5.094707,-4.677744 -11.206193,-10.388562 z"
       id="path1080" />
    <path
       style="fill:#f8ffff;stroke:none;stroke-width:0.999997px;stroke-linecap:butt;stroke-linejoin:miter;stroke-opacity:1;fill-opacity:1"
       d="M 52.459915,14.367631 62.98432,14.239834 33.308204,42.097416 27.963852,37.10204 52.459613,14.355722"
       id="path1530" />
  </g>
</svg>
