0
SECTION
2
HEADER
9
$INSUNITS
70
4
9
$ACADVER
1
AC1014
9
$HANDSEED
5
FFFF
0
ENDSEC
0
SECTION
2
TABLES
0
TABLE
2
VPORT
5
8
100
AcDbSymbolTable
0
ENDTAB
0
TABLE
2
LTYPE
5
5
100
AcDbSymbolTable
0
LTYPE
5
14
100
AcDbSymbolTableRecord
100
AcDbLinetypeTableRecord
2
BYBLOCK
70
0
0
LTYPE
5
15
100
AcDbSymbolTableRecord
100
AcDbLinetypeTableRecord
2
BYLAYER
70
0
0
ENDTAB
0
TABLE
2
LAYER
5
2
100
AcDbSymbolTable
70
2
0
LAYER
5
50
100
AcDbSymbolTableRecord
100
AcDbLayerTableRecord
2
0
70
0
6
CONTINUOUS
0
ENDTAB
0
TABLE
2
STYLE
5
3
100
AcDbSymbolTable
70
1
0
STYLE
5
11
100
AcDbSymbolTableRecord
100
AcDbTextStyleTableRecord
2
STANDARD
70
0
0
ENDTAB
0
TABLE
2
VIEW
5
6
100
AcDbSymbolTable
70
0
0
ENDTAB
0
TABLE
2
UCS
5
7
100
AcDbSymbolTable
70
0
0
ENDTAB
0
TABLE
2
APPID
5
9
100
AcDbSymbolTable
70
2
0
APPID
5
12
100
AcDbSymbolTableRecord
100
AcDbRegAppTableRecord
2
ACAD
70
0
0
ENDTAB
0
TABLE
2
DIMSTYLE
5
A
100
AcDbSymbolTable
70
1
0
ENDTAB
0
TABLE
2
BLOCK_RECORD
5
1
100
AcDbSymbolTable
70
1
0
BLOCK_RECORD
5
1F
100
AcDbSymbolTableRecord
100
AcDbBlockTableRecord
2
*MODEL_SPACE
0
BLOCK_RECORD
5
1B
100
AcDbSymbolTableRecord
100
AcDbBlockTableRecord
2
*PAPER_SPACE
0
ENDTAB
0
ENDSEC
0
SECTION
2
BLOCKS
0
BLOCK
5
20
100
AcDbEntity
100
AcDbBlockBegin
2
*MODEL_SPACE
0
ENDBLK
5
21
100
AcDbEntity
100
AcDbBlockEnd
0
BLOCK
5
1C
100
AcDbEntity
100
AcDbBlockBegin
2
*PAPER_SPACE
0
ENDBLK
5
1D
100
AcDbEntity
100
AcDbBlockEnd
0
ENDSEC
0
SECTION
2
ENTITIES
0
LWPOLYLINE
5
100
100
AcDbEntity
8
0
100
AcDbPolyline
90
4
70
1
43
0.0
10
-241.11881128845877
20
-198.30022888177214
10
-241.1188112884588
20
-196.3002288817722
42
-0.99999999999999989
10
-237.81881128845882
20
-196.3002288817722
10
-237.81881128845885
20
-198.30022888177214
42
-0.99999999999999989
0
LWPOLYLINE
5
101
100
AcDbEntity
8
0
100
AcDbPolyline
90
4
70
1
43
0.0
10
-241.11881128845866
20
-348.70022888177203
10
-241.11881128845869
20
-346.70022888177198
42
-0.99999999999999989
10
-237.8188112884587
20
-346.70022888177198
10
-237.81881128845873
20
-348.70022888177203
42
-0.99999999999999989
0
LWPOLYLINE
5
102
100
AcDbEntity
8
0
100
AcDbPolyline
90
4
70
1
43
0.0
10
-250.0000019111329
20
-493.63565944674639
10
249.99999408798533
20
-493.63565944674644
10
249.99999408798541
20
-165.00022888181735
10
-250.00000191113284
20
-165.00022888181743
0
LWPOLYLINE
5
103
100
AcDbEntity
8
0
100
AcDbPolyline
90
6
70
1
43
0.0
10
241.11880785846776
20
-197.6245623274786
10
241.11880785846773
20
-198.30022888177382
42
-0.99999999999999989
10
237.81880785846772
20
-198.30022888177382
10
237.81880785846772
20
-196.30022888177388
42
-0.99999999999999989
10
241.11880785846773
20
-196.30022888177388
10
241.11880785846776
20
-196.97589543607256
42
-0.099251023785635814
0
LWPOLYLINE
5
104
100
AcDbEntity
8
0
100
AcDbPolyline
90
6
70
1
43
0.0
10
241.11880785846651
20
-348.0245623274846
10
241.11880785846648
20
-348.70022888177391
42
-0.99999999999999989
10
237.8188078584665
20
-348.70022888177374
10
237.81880785846656
20
-346.7002288817738
42
-0.99999999999999989
10
241.11880785846654
20
-346.7002288817738
10
241.11880785846651
20
-347.37589543606668
42
-0.099251023787499296
0
LWPOLYLINE
5
105
100
AcDbEntity
8
0
100
AcDbPolyline
90
4
70
1
43
0.0
10
-241.11881128845877
20
-198.30022888177206
10
-241.1188112884588
20
-196.30022888177209
42
-0.99999999999999989
10
-237.81881128845882
20
-196.30022888177209
10
-237.81881128845885
20
-198.30022888177206
42
-0.99999999999999989
0
LWPOLYLINE
5
106
100
AcDbEntity
8
0
100
AcDbPolyline
90
4
70
1
43
0.0
10
-241.11881128845866
20
-348.70022888177186
10
-241.11881128845869
20
-346.70022888177186
42
-0.99999999999999989
10
-237.8188112884587
20
-346.70022888177186
10
-237.81881128845873
20
-348.70022888177186
42
-0.99999999999999989
0
LWPOLYLINE
5
107
100
AcDbEntity
8
0
100
AcDbPolyline
90
4
70
1
43
0.0
10
-250.0000019111329
20
-493.63565944674622
10
249.99999408798533
20
-493.63565944674622
10
249.99999408798541
20
-165.00022888181724
10
-250.00000191113284
20
-165.00022888181735
0
LWPOLYLINE
5
108
100
AcDbEntity
8
0
100
AcDbPolyline
90
6
70
1
43
0.0
10
241.11880785846776
20
-197.62456232747849
10
241.11880785846773
20
-198.30022888177371
42
-0.99999999999999989
10
237.81880785846772
20
-198.30022888177371
10
237.81880785846772
20
-196.30022888177376
42
-0.99999999999999989
10
241.11880785846773
20
-196.30022888177376
10
241.11880785846776
20
-196.97589543607248
42
-0.099251023785650719
0
LWPOLYLINE
5
109
100
AcDbEntity
8
0
100
AcDbPolyline
90
6
70
1
43
0.0
10
241.11880785846651
20
-348.02456232748449
10
241.11880785846648
20
-348.70022888177368
42
-0.99999999999999989
10
237.8188078584665
20
-348.70022888177351
10
237.81880785846656
20
-346.70022888177357
42
-0.99999999999999989
10
241.11880785846654
20
-346.70022888177357
10
241.11880785846654
20
-347.37589543606646
42
-0.099251023787516102
0
LWPOLYLINE
5
110
100
AcDbEntity
8
0
100
AcDbPolyline
90
9
70
1
43
0.0
10
-11.309074669879973
20
-326.08305975782355
10
-33.146815149775762
20
-306.07245738603257
42
0.18759656419955906
10
-38.551536810701187
20
-303.97067608051191
10
-62.08387714945458
20
-303.97067608050753
10
-5.9043530092808716
20
-355.44972539118845
10
50.275171130371525
20
-303.97067608050753
10
26.742830792666041
20
-303.97067608051549
42
0.18759656419941598
10
21.33810913178425
20
-306.07245738601767
10
-0.49963134800708353
20
-326.08305975780331
42
-0.38887873185187904
0
LWPOLYLINE
5
111
100
AcDbEntity
8
0
100
AcDbPolyline
90
6
70
1
43
0.0
10
7.6236146893946488
20
-303.97067608059155
10
-23.651304303152575
20
-303.97067608050753
42
0.68407358211526492
10
-24.191776469286907
20
-305.36049794996444
10
-9.0947891389701745
20
-319.19433807431551
42
0.38887873184521693
10
-6.9329004745685179
20
-319.19433807437838
10
8.1640868554869854
20
-305.36049795003953
42
0.6840735821329037
0
LWPOLYLINE
5
112
100
AcDbEntity
8
0
100
AcDbPolyline
90
6
70
1
43
0.0
10
19.000816315017524
20
-373.31859349237561
10
87.097166012361129
20
-310.91978542785654
42
0.68407358213721681
10
84.394805181893759
20
-303.97067608048206
10
73.958166857179222
20
-303.97067608050753
10
5.9371448540956795
20
-366.30045903046255
10
13.596094654062263
20
-373.31859349240005
42
0.38887873184980543
0
ENDSEC
0
SECTION
2
OBJECTS
0
DICTIONARY
5
C
100
AcDbDictionary
3
ACAD_GROUP
350
D
3
ACAD_MLINESTYLE
350
17
0
DICTIONARY
5
D
100
AcDbDictionary
0
DICTIONARY
5
1A
330
C
100
AcDbDictionary
0
DICTIONARY
5
17
100
AcDbDictionary
0
ENDSEC
0
EOF
