0
SECTION
2
HEADER
9
$INSUNITS
70
4
9
$ACADVER
1
AC1014
9
$HANDSEED
5
FFFF
0
ENDSEC
0
SECTION
2
TABLES
0
TABLE
2
VPORT
5
8
100
AcDbSymbolTable
0
ENDTAB
0
TABLE
2
LTYPE
5
5
100
AcDbSymbolTable
0
LTYPE
5
14
100
AcDbSymbolTableRecord
100
AcDbLinetypeTableRecord
2
BYBLOCK
70
0
0
LTYPE
5
15
100
AcDbSymbolTableRecord
100
AcDbLinetypeTableRecord
2
BYLAYER
70
0
0
ENDTAB
0
TABLE
2
LAYER
5
2
100
AcDbSymbolTable
70
2
0
LAYER
5
50
100
AcDbSymbolTableRecord
100
AcDbLayerTableRecord
2
0
70
0
6
CONTINUOUS
0
ENDTAB
0
TABLE
2
STYLE
5
3
100
AcDbSymbolTable
70
1
0
STYLE
5
11
100
AcDbSymbolTableRecord
100
AcDbTextStyleTableRecord
2
STANDARD
70
0
0
ENDTAB
0
TABLE
2
VIEW
5
6
100
AcDbSymbolTable
70
0
0
ENDTAB
0
TABLE
2
UCS
5
7
100
AcDbSymbolTable
70
0
0
ENDTAB
0
TABLE
2
APPID
5
9
100
AcDbSymbolTable
70
2
0
APPID
5
12
100
AcDbSymbolTableRecord
100
AcDbRegAppTableRecord
2
ACAD
70
0
0
ENDTAB
0
TABLE
2
DIMSTYLE
5
A
100
AcDbSymbolTable
70
1
0
ENDTAB
0
TABLE
2
BLOCK_RECORD
5
1
100
AcDbSymbolTable
70
1
0
BLOCK_RECORD
5
1F
100
AcDbSymbolTableRecord
100
AcDbBlockTableRecord
2
*MODEL_SPACE
0
BLOCK_RECORD
5
1B
100
AcDbSymbolTableRecord
100
AcDbBlockTableRecord
2
*PAPER_SPACE
0
ENDTAB
0
ENDSEC
0
SECTION
2
BLOCKS
0
BLOCK
5
20
100
AcDbEntity
100
AcDbBlockBegin
2
*MODEL_SPACE
0
ENDBLK
5
21
100
AcDbEntity
100
AcDbBlockEnd
0
BLOCK
5
1C
100
AcDbEntity
100
AcDbBlockBegin
2
*PAPER_SPACE
0
ENDBLK
5
1D
100
AcDbEntity
100
AcDbBlockEnd
0
ENDSEC
0
SECTION
2
ENTITIES
0
LINE
5
100
100
AcDbEntity
8
0
100
AcDbLine
10
-289.81952177582434
20
273.7000000000528
30
-2.3403363513807562e-06
11
-289.81952177582434
21
271.7000000000528
31
-2.3403362803264827e-06
0
ARC
5
101
100
AcDbEntity
8
0
100
AcDbCircle
10
-291.96952177582438
20
271.70000000005291
30
-5.6843418860808015e-13
40
2.1500000000000341
210
0
220
0
230
1
100
AcDbArc
50
180
51
359.99993763360294
0
LINE
5
102
100
AcDbEntity
8
0
100
AcDbLine
10
-294.11952177582441
20
271.70000000005291
30
-5.6843418860808015e-13
11
-294.11952177582447
21
273.70000000005285
31
-2.3403363513807562e-06
0
ARC
5
103
100
AcDbEntity
8
0
100
AcDbCircle
10
-291.9695217756514
20
273.70000000005285
30
-0.00031781706975374908
40
2.1500000000013433
210
1.0885282380887591e-06
220
-1.798711237776008e-20
230
0.99999999999940758
100
AcDbArc
50
0
51
179.99987526428387
0
LINE
5
104
100
AcDbEntity
8
0
100
AcDbLine
10
-289.81952177582423
20
123.30000000005299
30
-2.3403362092722091e-06
11
-289.81952177582423
21
121.30000000005296
31
-2.3403362803264827e-06
0
ARC
5
105
100
AcDbEntity
8
0
100
AcDbCircle
10
-291.96952177582426
20
121.30000000005295
30
-7.1054273576010019e-14
40
2.1499999999999986
210
0
220
0
230
1
100
AcDbArc
50
-180
51
6.2366397095586901e-05
0
LINE
5
106
100
AcDbEntity
8
0
100
AcDbLine
10
-294.11952177582424
20
121.30000000005295
30
-7.1054273576010019e-14
11
-294.11952177582424
21
123.30000000005298
31
-2.3403362092722091e-06
0
ARC
5
107
100
AcDbEntity
8
0
100
AcDbCircle
10
-291.96952177565129
20
123.30000000005298
30
-0.00031781712708024647
40
2.1500000000012722
210
1.088528436379791e-06
220
8.9935578271855971e-21
230
0.99999999999940758
100
AcDbArc
50
0
51
179.99987526428387
0
LWPOLYLINE
5
108
100
AcDbEntity
8
0
100
AcDbPolyline
90
4
70
1
43
0.0
10
-302.50071239849899
20
-23.635430564915481
10
197.49928360062
20
-23.635430564915406
10
197.49928360062
20
305.00000000001342
10
-302.50071239849899
20
305.00000000001319
0
LINE
5
109
100
AcDbEntity
8
0
100
AcDbLine
10
189.11809737110215
20
272.32934839742148
30
-2.3403363513807562e-06
11
189.11809737110212
21
271.70000000005126
31
-2.3403363513807562e-06
0
ARC
5
110
100
AcDbEntity
8
0
100
AcDbCircle
10
186.96809737110215
20
271.70000000005132
30
-2.1316282072803006e-13
40
2.1499999999999631
210
0
220
0
230
1
100
AcDbArc
50
180
51
359.99993763360294
0
LINE
5
111
100
AcDbEntity
8
0
100
AcDbLine
10
184.81809737110217
20
271.70000000005138
30
-2.1316282072803006e-13
11
184.81809737110208
21
273.7000000000512
31
-2.3403362803264827e-06
0
ARC
5
112
100
AcDbEntity
8
0
100
AcDbCircle
10
186.96809737110215
20
273.70000000005126
30
-2.1316282072803006e-13
40
2.1500000000000696
210
0
220
-0
230
1
100
AcDbArc
50
0
51
180.00006236639709
0
LINE
5
113
100
AcDbEntity
8
0
100
AcDbLine
10
189.11809737110221
20
273.70000000005132
30
-2.1316282072803006e-13
11
189.11809737110221
21
273.07065160268905
31
-2.3403362803264827e-06
0
ARC
5
114
100
AcDbEntity
8
0
100
AcDbCircle
10
187.00028779752853
20
272.70000000008827
30
0.00014933309804974519
40
2.1500000000012647
210
1.0722307039747494e-06
220
-1.8765805660753884e-07
230
0.9999999999994077
100
AcDbArc
50
-9.927162357236103
51
9.9271623572288608
0
LINE
5
115
100
AcDbEntity
8
0
100
AcDbLine
10
189.11809737110102
20
121.929348397415
30
-2.3403361382179355e-06
11
189.11809737110087
21
121.30000000005134
31
-2.3403360671636619e-06
0
ARC
5
116
100
AcDbEntity
8
0
100
AcDbCircle
10
186.96809737110095
20
121.30000000005134
30
2.8421709430404007e-13
40
2.1499999999999275
210
0
220
0
230
1
100
AcDbArc
50
-180
51
6.2360552894000202e-05
0
LINE
5
117
100
AcDbEntity
8
0
100
AcDbLine
10
184.818097371101
20
121.30000000005134
30
2.8421709430404007e-13
11
184.818097371101
21
123.30000000005137
31
-2.3403362092722091e-06
0
ARC
5
118
100
AcDbEntity
8
0
100
AcDbCircle
10
186.96809737110101
20
123.30000000005137
30
2.8421709430404007e-13
40
2.1499999999999986
210
0
220
0
230
1
100
AcDbArc
50
0
51
179.99993763360291
0
LINE
5
119
100
AcDbEntity
8
0
100
AcDbLine
10
189.11809737110102
20
123.30000000005137
30
2.8421709430404007e-13
11
189.11809737110102
21
122.67065160269588
31
-2.3403361382179355e-06
0
ARC
5
120
100
AcDbEntity
8
0
100
AcDbCircle
10
187.00028779752847
20
122.3000000000909
30
0.00017755688636158845
40
2.1500000000012744
210
1.0722308016352263e-06
220
-1.876580737031523e-07
230
0.99999999999940758
100
AcDbArc
50
-9.9271623574118735
51
9.9271623574122057
0
LWPOLYLINE
5
121
100
AcDbEntity
8
0
100
AcDbPolyline
90
4
70
1
43
0.0
10
-289.81952177582434
20
273.70000000005291
10
-289.81952177582428
20
271.70000000005297
42
-0.99999999999999989
10
-294.11952177582441
20
271.70000000005297
10
-294.11952177582447
20
273.70000000005297
42
-0.99999999999999989
0
LWPOLYLINE
5
122
100
AcDbEntity
8
0
100
AcDbPolyline
90
4
70
1
43
0.0
10
-289.81952177582423
20
123.30000000005305
10
-289.81952177582423
20
121.30000000005303
42
-0.99999999999999989
10
-294.11952177582424
20
121.30000000005299
10
-294.11952177582424
20
123.30000000005298
42
-0.99999999999999989
0
LWPOLYLINE
5
123
100
AcDbEntity
8
0
100
AcDbPolyline
90
4
70
1
43
0.0
10
-302.50071239849899
20
-23.635430564915492
10
197.49928360062
20
-23.635430564915417
10
197.49928360062
20
305.00000000001353
10
-302.50071239849899
20
305.0000000000133
0
LWPOLYLINE
5
124
100
AcDbEntity
8
0
100
AcDbPolyline
90
6
70
1
43
0.0
10
189.11809737110215
20
272.3293483974216
10
189.11809737110212
20
271.70000000005138
42
-0.99999999999999989
10
184.81809737110217
20
271.70000000005143
10
184.81809737110208
20
273.70000000005126
42
-0.99999999999999989
10
189.11809737110221
20
273.70000000005143
10
189.11809737110218
20
273.07065160268917
42
-0.086848205444371038
0
LWPOLYLINE
5
125
100
AcDbEntity
8
0
100
AcDbPolyline
90
6
70
1
43
0.0
10
189.11809737110102
20
121.92934839741505
10
189.11809737110087
20
121.30000000005137
42
-0.99999999999999989
10
184.818097371101
20
121.3000000000514
10
184.818097371101
20
123.3000000000514
42
-0.99999999999999989
10
189.11809737110102
20
123.30000000005143
10
189.11809737110102
20
122.67065160269594
42
-0.086848205445938409
0
ENDSEC
0
SECTION
2
OBJECTS
0
DICTIONARY
5
C
100
AcDbDictionary
3
ACAD_GROUP
350
D
3
ACAD_MLINESTYLE
350
17
0
DICTIONARY
5
D
100
AcDbDictionary
0
DICTIONARY
5
1A
330
C
100
AcDbDictionary
0
DICTIONARY
5
17
100
AcDbDictionary
0
ENDSEC
0
EOF
