0
SECTION
2
HEADER
9
$INSUNITS
70
4
9
$ACADVER
1
AC1014
9
$HANDSEED
5
FFFF
0
ENDSEC
0
SECTION
2
TABLES
0
TABLE
2
VPORT
5
8
100
AcDbSymbolTable
0
ENDTAB
0
TABLE
2
LTYPE
5
5
100
AcDbSymbolTable
0
LTYPE
5
14
100
AcDbSymbolTableRecord
100
AcDbLinetypeTableRecord
2
BYBLOCK
70
0
0
LTYPE
5
15
100
AcDbSymbolTableRecord
100
AcDbLinetypeTableRecord
2
BYLAYER
70
0
0
ENDTAB
0
TABLE
2
LAYER
5
2
100
AcDbSymbolTable
70
2
0
LAYER
5
50
100
AcDbSymbolTableRecord
100
AcDbLayerTableRecord
2
0
70
0
6
CONTINUOUS
0
ENDTAB
0
TABLE
2
STYLE
5
3
100
AcDbSymbolTable
70
1
0
STYLE
5
11
100
AcDbSymbolTableRecord
100
AcDbTextStyleTableRecord
2
STANDARD
70
0
0
ENDTAB
0
TABLE
2
VIEW
5
6
100
AcDbSymbolTable
70
0
0
ENDTAB
0
TABLE
2
UCS
5
7
100
AcDbSymbolTable
70
0
0
ENDTAB
0
TABLE
2
APPID
5
9
100
AcDbSymbolTable
70
2
0
APPID
5
12
100
AcDbSymbolTableRecord
100
AcDbRegAppTableRecord
2
ACAD
70
0
0
ENDTAB
0
TABLE
2
DIMSTYLE
5
A
100
AcDbSymbolTable
70
1
0
ENDTAB
0
TABLE
2
BLOCK_RECORD
5
1
100
AcDbSymbolTable
70
1
0
BLOCK_RECORD
5
1F
100
AcDbSymbolTableRecord
100
AcDbBlockTableRecord
2
*MODEL_SPACE
0
BLOCK_RECORD
5
1B
100
AcDbSymbolTableRecord
100
AcDbBlockTableRecord
2
*PAPER_SPACE
0
ENDTAB
0
ENDSEC
0
SECTION
2
BLOCKS
0
BLOCK
5
20
100
AcDbEntity
100
AcDbBlockBegin
2
*MODEL_SPACE
0
ENDBLK
5
21
100
AcDbEntity
100
AcDbBlockEnd
0
BLOCK
5
1C
100
AcDbEntity
100
AcDbBlockBegin
2
*PAPER_SPACE
0
ENDBLK
5
1D
100
AcDbEntity
100
AcDbBlockEnd
0
ENDSEC
0
SECTION
2
ENTITIES
0
CIRCLE
5
100
100
AcDbEntity
8
0
100
AcDbCircle
10
-254.99999999999787
20
-405.11999999999739
30
0
40
2.1499999999999986
210
1.1164836239934368e-43
220
1.7093537264914781e-72
230
1
0
CIRCLE
5
101
100
AcDbEntity
8
0
100
AcDbCircle
10
255.00000000000026
20
-405.11999999999762
30
0
40
2.1499999999999986
210
1.1164836239934368e-43
220
1.7093537264914781e-72
230
1
0
CIRCLE
5
102
100
AcDbEntity
8
0
100
AcDbCircle
10
-254.99999999999787
20
-483.31999999999715
30
0
40
2.1499999999999986
210
1.1164836239934368e-43
220
1.7093537264914781e-72
230
1
0
CIRCLE
5
103
100
AcDbEntity
8
0
100
AcDbCircle
10
255.00000000000011
20
-483.31999999999761
30
0
40
2.1500000000000341
210
3.9443045261061757e-31
220
6.0387913402628008e-60
230
1
0
CIRCLE
5
104
100
AcDbEntity
8
0
100
AcDbCircle
10
-254.99999999999937
20
24.999999999997875
30
0
40
2.1499999999999986
210
1.1164836239934368e-43
220
1.7093537264914781e-72
230
1
0
CIRCLE
5
105
100
AcDbEntity
8
0
100
AcDbCircle
10
255.00000000000063
20
24.999999999999076
30
0
40
2.1499999999999986
210
1.1164836239934368e-43
220
1.7093537264914781e-72
230
1
0
CIRCLE
5
106
100
AcDbEntity
8
0
100
AcDbCircle
10
255.00000000000028
20
-504.99999999999852
30
0
40
2.1500000000000341
210
3.9443045261061757e-31
220
6.0387913402628008e-60
230
1
0
CIRCLE
5
107
100
AcDbEntity
8
0
100
AcDbCircle
10
224.99999999999966
20
44.999999999999886
30
0
40
2.1499999999999986
210
1.1164836239934368e-43
220
1.7093537264914781e-72
230
1
0
CIRCLE
5
108
100
AcDbEntity
8
0
100
AcDbCircle
10
-254.99999999999835
20
-426.79999999999848
30
0
40
2.1499999999999986
210
1.1164836239934368e-43
220
1.7093537264914781e-72
230
1
0
CIRCLE
5
109
100
AcDbEntity
8
0
100
AcDbCircle
10
-254.99999999999937
20
44.999999999997982
30
0
40
2.1499999999999986
210
1.1164836239934368e-43
220
1.7093537264914781e-72
230
1
0
CIRCLE
5
110
100
AcDbEntity
8
0
100
AcDbCircle
10
255.00000000000063
20
44.999999999999083
30
0
40
2.1499999999999986
210
1.1164836239934368e-43
220
1.7093537264914781e-72
230
1
0
CIRCLE
5
111
100
AcDbEntity
8
0
100
AcDbCircle
10
255.00000000000043
20
-426.79999999999848
30
0
40
2.1499999999999986
210
1.1164836239934368e-43
220
1.7093537264914781e-72
230
1
0
CIRCLE
5
112
100
AcDbEntity
8
0
100
AcDbCircle
10
-224.99999999999937
20
44.999999999998082
30
3.5527136788005009e-14
40
2.1499999999999986
210
1.1164836239934368e-43
220
1.7093537264914781e-72
230
1
0
CIRCLE
5
113
100
AcDbEntity
8
0
100
AcDbCircle
10
-254.99999999999636
20
-505.00000000000222
30
0
40
2.1499999999999986
210
1.1164836239934368e-43
220
1.7093537264914781e-72
230
1
0
LWPOLYLINE
5
114
100
AcDbEntity
8
0
100
AcDbPolyline
90
4
70
1
43
0.0
10
-222.57359312880541
20
-468.87362855392217
10
-208.57359312880536
20
-468.87362855392217
42
-0.99999999999999989
10
-208.57359312880544
20
-482.87362855392223
10
-222.57359312880536
20
-482.87362855392212
42
-0.99999999999999989
0
LWPOLYLINE
5
115
100
AcDbEntity
8
0
100
AcDbPolyline
90
4
70
1
43
0.0
10
222.5735931288055
20
-482.87362855392223
42
0.99999999999999989
10
222.57359312880541
20
-468.87362855392234
10
208.5735931288055
20
-468.87362855392217
42
0.99999999999999989
10
208.5735931288055
20
-482.87362855392223
0
LWPOLYLINE
5
116
100
AcDbEntity
8
0
100
AcDbPolyline
90
4
70
1
43
0.0
10
230.92500000005367
20
2.9999999999979559
10
239.92500000005364
20
2.9999999999980007
42
-0.99999999999999989
10
239.92500000005364
20
-3.0000000000020388
10
230.92500000005367
20
-3.0000000000020695
42
-0.99999999999999989
0
LWPOLYLINE
5
117
100
AcDbEntity
8
0
100
AcDbPolyline
90
4
70
1
43
0.0
10
-230.9250000000514
20
-3.0000000000021645
10
-239.92500000005137
20
-3.0000000000021854
42
-0.99999999999999989
10
-239.92500000005137
20
2.9999999999978542
10
-230.9250000000514
20
2.9999999999979088
42
-0.99999999999999989
0
CIRCLE
5
118
100
AcDbEntity
8
0
100
AcDbCircle
10
223.85000000010567
20
24.999999999996877
30
0
40
2.3999999999999999
210
1.1164845017887852e-43
220
1.7093564143290908e-72
230
1
0
CIRCLE
5
119
100
AcDbEntity
8
0
100
AcDbCircle
10
-223.85000000010439
20
24.999999999996877
30
0
40
2.3999999999999999
210
1.1164827461980896e-43
220
1.7093510386559809e-72
230
1
0
LWPOLYLINE
5
120
100
AcDbEntity
8
0
100
AcDbPolyline
90
12
70
1
43
0.0
10
-30.425734899990164
20
-206.06559401231024
10
31.013711204028198
20
-147.53055808775329
42
-0.19262948014625617
10
38.993403777051931
20
-144.33784067911012
10
80.828091329181646
20
-144.33784067911068
42
-0.67696676402332701
10
82.823014472438317
20
-149.3238357900143
10
-32.606739653071521
20
-259.29691062959103
42
-0.39853508432135032
10
-48.520636096766793
20
-259.34001451686123
10
-165.24392604294263
20
-149.33461176183252
42
-0.67894350413325999
10
-163.26037507527334
20
-144.33784067910975
10
-116.47500219279138
20
-144.33784067911034
42
-0.19122531227289599
10
-108.54079832211815
20
-147.487454200483
10
-46.339631343686769
20
-206.10869789958122
42
0.39853508432138812
0
LWPOLYLINE
5
121
100
AcDbEntity
8
0
100
AcDbPolyline
90
6
70
1
43
0.0
10
-49.110572463678665
20
-181.11831236496425
10
-82.835262416619528
20
-149.33461176183241
42
-0.67894350413360427
10
-80.851711448951164
20
-144.33784067911131
10
-13.766267046159362
20
-144.33784067911068
42
-0.6769667640234186
10
-11.77134390290318
20
-149.32383579001478
10
-45.132098352754923
20
-181.10753639314737
42
-0.39853508432147289
0
LWPOLYLINE
5
122
100
AcDbEntity
8
0
100
AcDbPolyline
90
8
70
1
43
0.0
10
161.30870816462198
20
-169.26781623363453
42
0.67696676402343603
10
151.33409244834061
20
-144.33784067911122
10
145.14568031810765
20
-144.33784067911012
42
0.19262948014638093
10
137.16598774508265
20
-147.53055808775323
10
-10.249076480820772
20
-287.9769101866143
42
0.41421356237309559
10
-10.44704595305166
20
-296.15457223187127
10
-6.058215037888103
20
-300.76116956648815
42
0.41421356237312701
10
22.563602120508932
20
-301.45406271929824
0
CIRCLE
5
123
100
AcDbEntity
8
0
100
AcDbCircle
10
255.00000000000165
20
-229.99999999999926
30
0
40
2.1499999999999999
210
1.1164836239934362e-43
220
1.7093537264914758e-72
230
1
0
CIRCLE
5
124
100
AcDbEntity
8
0
100
AcDbCircle
10
3.2693422563523307e-12
20
-505.00000000000023
30
0
40
2.1499999999999999
210
1.1164836239934362e-43
220
1.7093537264914758e-72
230
1
0
CIRCLE
5
125
100
AcDbEntity
8
0
100
AcDbCircle
10
255.00000000000165
20
-367.4999999999992
30
-3.5527136788005009e-14
40
2.1499999999999999
210
1.1164836239934362e-43
220
1.7093537264914758e-72
230
1
0
CIRCLE
5
126
100
AcDbEntity
8
0
100
AcDbCircle
10
255.00000000000063
20
-107.50000000000222
30
0
40
2.1499999999999999
210
1.1164836239934362e-43
220
1.7093537264914758e-72
230
1
0
CIRCLE
5
127
100
AcDbEntity
8
0
100
AcDbCircle
10
6.7586127082796518e-13
20
44.999999999998785
30
0
40
2.1499999999999999
210
1.1164836239934362e-43
220
1.7093537264914758e-72
230
1
0
CIRCLE
5
128
100
AcDbEntity
8
0
100
AcDbCircle
10
-254.99999999999937
20
-107.50000000000222
30
0
40
2.1499999999999999
210
1.1164836239934362e-43
220
1.7093537264914758e-72
230
1
0
CIRCLE
5
129
100
AcDbEntity
8
0
100
AcDbCircle
10
-254.99999999999835
20
-367.50000000000023
30
0
40
2.1499999999999999
210
1.1164836239934362e-43
220
1.7093537264914758e-72
230
1
0
CIRCLE
5
130
100
AcDbEntity
8
0
100
AcDbCircle
10
-254.99999999999835
20
-230.00000000000225
30
0
40
2.1499999999999999
210
1.1164836239934362e-43
220
1.7093537264914758e-72
230
1
0
CIRCLE
5
131
100
AcDbEntity
8
0
100
AcDbCircle
10
52.50000000000135
20
17.915909335672676
30
0
40
2.2500000000000102
210
3.9443045261061757e-31
220
6.0387913402627952e-60
230
1
0
CIRCLE
5
132
100
AcDbEntity
8
0
100
AcDbCircle
10
52.500000000001549
20
-87.084090664327519
30
0
40
2.2500000000000102
210
3.9443045261061757e-31
220
6.0387913402627952e-60
230
1
0
CIRCLE
5
133
100
AcDbEntity
8
0
100
AcDbCircle
10
-52.499999999998863
20
17.915909335672076
30
0
40
2.2500000000000102
210
3.9443045261061757e-31
220
6.0387913402627952e-60
230
1
0
CIRCLE
5
134
100
AcDbEntity
8
0
100
AcDbCircle
10
-52.499999999997968
20
-87.084090664328016
30
0
40
2.2500000000000102
210
3.9443045261061757e-31
220
6.0387913402627952e-60
230
1
0
CIRCLE
5
135
100
AcDbEntity
8
0
100
AcDbCircle
10
1.4929854169520802e-12
20
-34.584090664327526
30
0
40
57.5
210
1.1164836239934362e-43
220
1.7093537264914758e-72
230
1
0
LWPOLYLINE
5
136
100
AcDbEntity
8
0
100
AcDbPolyline
90
4
70
1
43
0.0
10
-264.99999999999937
20
54.999999999997883
10
-264.99999999999739
20
-514.99999999999932
10
265.00000000000261
20
-514.99999999999818
10
265.00000000000063
20
54.999999999999076
0
LWPOLYLINE
5
137
100
AcDbEntity
8
0
100
AcDbPolyline
90
4
70
1
43
0.0
10
-4.4999999999993392
20
-468.00000000000216
10
4.5000000000005871
20
-468.00000000000216
42
-0.99999999999999989
10
4.5000000000006199
20
-474.00000000000227
10
-4.4999999999992681
20
-474.00000000000227
42
-0.99999999999999989
0
ENDSEC
0
SECTION
2
OBJECTS
0
DICTIONARY
5
C
100
AcDbDictionary
3
ACAD_GROUP
350
D
3
ACAD_MLINESTYLE
350
17
0
DICTIONARY
5
D
100
AcDbDictionary
0
DICTIONARY
5
1A
330
C
100
AcDbDictionary
0
DICTIONARY
5
17
100
AcDbDictionary
0
ENDSEC
0
EOF
