0
SECTION
2
HEADER
9
$INSUNITS
70
4
9
$ACADVER
1
AC1014
9
$HANDSEED
5
FFFF
0
ENDSEC
0
SECTION
2
TABLES
0
TABLE
2
VPORT
5
8
100
AcDbSymbolTable
0
ENDTAB
0
TABLE
2
LTYPE
5
5
100
AcDbSymbolTable
0
LTYPE
5
14
100
AcDbSymbolTableRecord
100
AcDbLinetypeTableRecord
2
BYBLOCK
70
0
0
LTYPE
5
15
100
AcDbSymbolTableRecord
100
AcDbLinetypeTableRecord
2
BYLAYER
70
0
0
ENDTAB
0
TABLE
2
LAYER
5
2
100
AcDbSymbolTable
70
2
0
LAYER
5
50
100
AcDbSymbolTableRecord
100
AcDbLayerTableRecord
2
0
70
0
6
CONTINUOUS
0
ENDTAB
0
TABLE
2
STYLE
5
3
100
AcDbSymbolTable
70
1
0
STYLE
5
11
100
AcDbSymbolTableRecord
100
AcDbTextStyleTableRecord
2
STANDARD
70
0
0
ENDTAB
0
TABLE
2
VIEW
5
6
100
AcDbSymbolTable
70
0
0
ENDTAB
0
TABLE
2
UCS
5
7
100
AcDbSymbolTable
70
0
0
ENDTAB
0
TABLE
2
APPID
5
9
100
AcDbSymbolTable
70
2
0
APPID
5
12
100
AcDbSymbolTableRecord
100
AcDbRegAppTableRecord
2
ACAD
70
0
0
ENDTAB
0
TABLE
2
DIMSTYLE
5
A
100
AcDbSymbolTable
70
1
0
ENDTAB
0
TABLE
2
BLOCK_RECORD
5
1
100
AcDbSymbolTable
70
1
0
BLOCK_RECORD
5
1F
100
AcDbSymbolTableRecord
100
AcDbBlockTableRecord
2
*MODEL_SPACE
0
BLOCK_RECORD
5
1B
100
AcDbSymbolTableRecord
100
AcDbBlockTableRecord
2
*PAPER_SPACE
0
ENDTAB
0
ENDSEC
0
SECTION
2
BLOCKS
0
BLOCK
5
20
100
AcDbEntity
100
AcDbBlockBegin
2
*MODEL_SPACE
0
ENDBLK
5
21
100
AcDbEntity
100
AcDbBlockEnd
0
BLOCK
5
1C
100
AcDbEntity
100
AcDbBlockBegin
2
*PAPER_SPACE
0
ENDBLK
5
1D
100
AcDbEntity
100
AcDbBlockEnd
0
ENDSEC
0
SECTION
2
ENTITIES
0
LWPOLYLINE
5
100
100
AcDbEntity
8
0
100
AcDbPolyline
90
4
70
1
43
0.0
10
239.92500000005202
20
-2.99999999999994
10
230.92500000005202
20
-2.9999999999999609
42
-0.99999999999999989
10
230.92500000005202
20
3.0000000000000786
10
239.92500000005202
20
3.0000000000001332
42
-0.99999999999999989
0
LWPOLYLINE
5
101
100
AcDbEntity
8
0
100
AcDbPolyline
90
4
70
1
43
0.0
10
-239.92500000005299
20
3.0000000000001803
10
-230.92500000005302
20
3.0000000000002252
42
-0.99999999999999989
10
-230.92500000005302
20
-2.9999999999998144
10
-239.92500000005299
20
-2.999999999999845
42
-0.99999999999999989
0
LWPOLYLINE
5
102
100
AcDbEntity
8
0
100
AcDbPolyline
90
4
70
1
43
0.0
10
-222.57359312880479
20
-468.87362855391996
42
0.99999999999999989
10
-222.57359312880484
20
-482.87362855392007
10
-208.57359312880487
20
-482.87362855392007
42
0.99999999999999989
10
-208.57359312880487
20
-468.87362855391996
0
LWPOLYLINE
5
103
100
AcDbEntity
8
0
100
AcDbPolyline
90
4
70
1
43
0.0
10
264.99999999999801
20
-514.99999999999704
10
265
20
55.000000000000071
10
-265
20
55.000000000001307
10
-265.00000000000199
20
-514.99999999999602
0
LWPOLYLINE
5
104
100
AcDbEntity
8
0
100
AcDbPolyline
90
4
70
1
43
0.0
10
-4.5000000000000062
20
-468
10
4.4999999999999849
20
-468
42
-0.99999999999999989
10
4.4999999999999858
20
-474.00000000000006
10
-4.4999999999999787
20
-474.00000000000006
42
-0.99999999999999989
0
LWPOLYLINE
5
105
100
AcDbEntity
8
0
100
AcDbPolyline
90
4
70
1
43
0.0
10
208.57359312880607
20
-468.87362855391996
10
222.57359312880607
20
-468.87362855391996
42
-0.99999999999999989
10
222.57359312880598
20
-482.87362855392007
10
208.57359312880601
20
-482.87362855392007
42
-0.99999999999999989
0
CIRCLE
5
106
100
AcDbEntity
8
0
100
AcDbCircle
10
254.99999999999852
20
-405.11999999999517
30
0
40
2.1499999999999986
210
0
220
0
230
1
0
CIRCLE
5
107
100
AcDbEntity
8
0
100
AcDbCircle
10
-254.9999999999996
20
-405.1199999999954
30
0
40
2.1499999999999986
210
0
220
0
230
1
0
CIRCLE
5
108
100
AcDbEntity
8
0
100
AcDbCircle
10
254.99999999999852
20
-483.31999999999493
30
0
40
2.1499999999999986
210
0
220
0
230
1
0
CIRCLE
5
109
100
AcDbEntity
8
0
100
AcDbCircle
10
-254.99999999999946
20
-483.31999999999539
30
0
40
2.1500000000000341
210
0
220
0
230
1
0
CIRCLE
5
110
100
AcDbEntity
8
0
100
AcDbCircle
10
255
20
25.000000000000103
30
0
40
2.1499999999999986
210
0
220
0
230
1
0
CIRCLE
5
111
100
AcDbEntity
8
0
100
AcDbCircle
10
-255
20
25.0000000000013
30
0
40
2.1499999999999986
210
0
220
0
230
1
0
CIRCLE
5
112
100
AcDbEntity
8
0
100
AcDbCircle
10
-254.99999999999966
20
-504.99999999999631
30
0
40
2.1500000000000341
210
0
220
0
230
1
0
CIRCLE
5
113
100
AcDbEntity
8
0
100
AcDbCircle
10
-224.99999999999901
20
45.000000000002103
30
0
40
2.1499999999999986
210
0
220
0
230
1
0
CIRCLE
5
114
100
AcDbEntity
8
0
100
AcDbCircle
10
254.99999999999901
20
-426.79999999999632
30
0
40
2.1499999999999986
210
0
220
0
230
1
0
CIRCLE
5
115
100
AcDbEntity
8
0
100
AcDbCircle
10
255
20
45.000000000000206
30
0
40
2.1499999999999986
210
0
220
0
230
1
0
CIRCLE
5
116
100
AcDbEntity
8
0
100
AcDbCircle
10
-255
20
45.000000000001307
30
0
40
2.1499999999999986
210
0
220
0
230
1
0
CIRCLE
5
117
100
AcDbEntity
8
0
100
AcDbCircle
10
-254.99999999999977
20
-426.79999999999632
30
0
40
2.1499999999999986
210
0
220
0
230
1
0
CIRCLE
5
118
100
AcDbEntity
8
0
100
AcDbCircle
10
225
20
45.000000000000298
30
0
40
2.1499999999999986
210
0
220
0
230
1
0
CIRCLE
5
119
100
AcDbEntity
8
0
100
AcDbCircle
10
254.99999999999702
20
-505
30
0
40
2.1499999999999986
210
0
220
0
230
1
0
CIRCLE
5
120
100
AcDbEntity
8
0
100
AcDbCircle
10
-8.5265128291212012e-13
20
-34.584090664325302
30
0
40
57.5
210
0
220
0
230
1
0
CIRCLE
5
121
100
AcDbEntity
8
0
100
AcDbCircle
10
52.499999999998607
20
-87.084090664325799
30
0
40
2.2500000000000102
210
0
220
0
230
1
0
CIRCLE
5
122
100
AcDbEntity
8
0
100
AcDbCircle
10
52.499999999999503
20
17.9159093356743
30
0
40
2.2500000000000102
210
0
220
0
230
1
0
CIRCLE
5
123
100
AcDbEntity
8
0
100
AcDbCircle
10
-52.500000000000909
20
-87.084090664325302
30
0
40
2.2500000000000102
210
0
220
0
230
1
0
CIRCLE
5
124
100
AcDbEntity
8
0
100
AcDbCircle
10
-52.500000000000711
20
17.915909335674904
30
0
40
2.2500000000000102
210
0
220
0
230
1
0
CIRCLE
5
125
100
AcDbEntity
8
0
100
AcDbCircle
10
254.99999999999901
20
-230
30
0
40
2.1499999999999999
210
0
220
0
230
1
0
CIRCLE
5
126
100
AcDbEntity
8
0
100
AcDbCircle
10
254.99999999999901
20
-367.49999999999801
30
0
40
2.1499999999999999
210
0
220
0
230
1
0
CIRCLE
5
127
100
AcDbEntity
8
0
100
AcDbCircle
10
255
20
-107.5
30
0
40
2.1499999999999999
210
0
220
0
230
1
0
CIRCLE
5
128
100
AcDbEntity
8
0
100
AcDbCircle
10
-3.5527136788005003e-14
20
45.000000000001002
30
0
40
2.1499999999999999
210
0
220
0
230
1
0
CIRCLE
5
129
100
AcDbEntity
8
0
100
AcDbCircle
10
-255
20
-107.5
30
0
40
2.1499999999999999
210
0
220
0
230
1
0
CIRCLE
5
130
100
AcDbEntity
8
0
100
AcDbCircle
10
-255.00000000000099
20
-367.49999999999704
30
0
40
2.1499999999999999
210
0
220
0
230
1
0
CIRCLE
5
131
100
AcDbEntity
8
0
100
AcDbCircle
10
-2.6290081223123703e-12
20
-504.99999999999801
30
0
40
2.1499999999999999
210
0
220
0
230
1
0
CIRCLE
5
132
100
AcDbEntity
8
0
100
AcDbCircle
10
-255.00000000000099
20
-229.99999999999702
30
0
40
2.1499999999999999
210
0
220
0
230
1
0
CIRCLE
5
133
100
AcDbEntity
8
0
100
AcDbCircle
10
223.85000000010504
20
24.999999999999105
30
0
40
2.3999999999999999
210
0
220
0
230
1
0
CIRCLE
5
134
100
AcDbEntity
8
0
100
AcDbCircle
10
-223.85000000010504
20
24.999999999999105
30
0
40
2.3999999999999999
210
0
220
0
230
1
0
CIRCLE
5
135
100
AcDbEntity
8
0
100
AcDbCircle
10
254.99999999999852
20
-405.11999999999517
30
0
40
2.1499999999999986
210
0
220
-0
230
1
0
CIRCLE
5
136
100
AcDbEntity
8
0
100
AcDbCircle
10
-254.9999999999996
20
-405.1199999999954
30
0
40
2.1499999999999986
210
0
220
-0
230
1
0
CIRCLE
5
137
100
AcDbEntity
8
0
100
AcDbCircle
10
254.99999999999852
20
-483.31999999999493
30
0
40
2.1499999999999986
210
0
220
-0
230
1
0
CIRCLE
5
138
100
AcDbEntity
8
0
100
AcDbCircle
10
-254.99999999999946
20
-483.31999999999539
30
0
40
2.1500000000000341
210
0
220
-0
230
1
0
CIRCLE
5
139
100
AcDbEntity
8
0
100
AcDbCircle
10
255
20
25.000000000000103
30
0
40
2.1499999999999986
210
0
220
-0
230
1
0
CIRCLE
5
140
100
AcDbEntity
8
0
100
AcDbCircle
10
-255
20
25.0000000000013
30
0
40
2.1499999999999986
210
0
220
-0
230
1
0
CIRCLE
5
141
100
AcDbEntity
8
0
100
AcDbCircle
10
-254.99999999999966
20
-504.99999999999631
30
0
40
2.1500000000000341
210
0
220
-0
230
1
0
CIRCLE
5
142
100
AcDbEntity
8
0
100
AcDbCircle
10
-224.99999999999901
20
45.000000000002103
30
0
40
2.1499999999999986
210
0
220
-0
230
1
0
CIRCLE
5
143
100
AcDbEntity
8
0
100
AcDbCircle
10
254.99999999999901
20
-426.79999999999632
30
0
40
2.1499999999999986
210
0
220
-0
230
1
0
CIRCLE
5
144
100
AcDbEntity
8
0
100
AcDbCircle
10
255
20
45.000000000000206
30
0
40
2.1499999999999986
210
0
220
-0
230
1
0
CIRCLE
5
145
100
AcDbEntity
8
0
100
AcDbCircle
10
-255
20
45.000000000001307
30
0
40
2.1499999999999986
210
0
220
-0
230
1
0
CIRCLE
5
146
100
AcDbEntity
8
0
100
AcDbCircle
10
-254.99999999999977
20
-426.79999999999632
30
0
40
2.1499999999999986
210
0
220
-0
230
1
0
CIRCLE
5
147
100
AcDbEntity
8
0
100
AcDbCircle
10
225
20
45.000000000000298
30
0
40
2.1499999999999986
210
0
220
-0
230
1
0
CIRCLE
5
148
100
AcDbEntity
8
0
100
AcDbCircle
10
254.99999999999702
20
-505
30
0
40
2.1499999999999986
210
0
220
-0
230
1
0
CIRCLE
5
149
100
AcDbEntity
8
0
100
AcDbCircle
10
-8.5265128291212012e-13
20
-34.584090664325302
30
0
40
57.5
210
0
220
-0
230
1
0
CIRCLE
5
150
100
AcDbEntity
8
0
100
AcDbCircle
10
52.499999999998607
20
-87.084090664325799
30
0
40
2.2500000000000102
210
0
220
-0
230
1
0
CIRCLE
5
151
100
AcDbEntity
8
0
100
AcDbCircle
10
52.499999999999503
20
17.9159093356743
30
0
40
2.2500000000000102
210
0
220
-0
230
1
0
CIRCLE
5
152
100
AcDbEntity
8
0
100
AcDbCircle
10
-52.500000000000909
20
-87.084090664325302
30
0
40
2.2500000000000102
210
0
220
-0
230
1
0
CIRCLE
5
153
100
AcDbEntity
8
0
100
AcDbCircle
10
-52.500000000000711
20
17.915909335674904
30
0
40
2.2500000000000102
210
0
220
-0
230
1
0
CIRCLE
5
154
100
AcDbEntity
8
0
100
AcDbCircle
10
254.99999999999901
20
-230
30
0
40
2.1499999999999999
210
0
220
-0
230
1
0
CIRCLE
5
155
100
AcDbEntity
8
0
100
AcDbCircle
10
254.99999999999901
20
-367.49999999999801
30
0
40
2.1499999999999999
210
0
220
-0
230
1
0
CIRCLE
5
156
100
AcDbEntity
8
0
100
AcDbCircle
10
255
20
-107.5
30
0
40
2.1499999999999999
210
0
220
-0
230
1
0
CIRCLE
5
157
100
AcDbEntity
8
0
100
AcDbCircle
10
-3.5527136788005003e-14
20
45.000000000001002
30
0
40
2.1499999999999999
210
0
220
-0
230
1
0
CIRCLE
5
158
100
AcDbEntity
8
0
100
AcDbCircle
10
-255
20
-107.5
30
0
40
2.1499999999999999
210
0
220
-0
230
1
0
CIRCLE
5
159
100
AcDbEntity
8
0
100
AcDbCircle
10
-255.00000000000099
20
-367.49999999999704
30
0
40
2.1499999999999999
210
0
220
-0
230
1
0
CIRCLE
5
160
100
AcDbEntity
8
0
100
AcDbCircle
10
-2.6290081223123703e-12
20
-504.99999999999801
30
0
40
2.1499999999999999
210
0
220
-0
230
1
0
CIRCLE
5
161
100
AcDbEntity
8
0
100
AcDbCircle
10
-255.00000000000099
20
-229.99999999999702
30
0
40
2.1499999999999999
210
0
220
-0
230
1
0
CIRCLE
5
162
100
AcDbEntity
8
0
100
AcDbCircle
10
223.85000000010504
20
24.999999999999105
30
0
40
2.3999999999999999
210
-0
220
0
230
1
0
CIRCLE
5
163
100
AcDbEntity
8
0
100
AcDbCircle
10
-223.85000000010504
20
24.999999999999105
30
0
40
2.3999999999999999
210
0
220
-0
230
1
0
LWPOLYLINE
5
164
100
AcDbEntity
8
0
100
AcDbPolyline
90
4
70
1
43
0.0
10
239.92500000005202
20
-2.99999999999994
10
230.92500000005202
20
-2.9999999999999609
42
-0.99999999999999989
10
230.92500000005202
20
3.0000000000000786
10
239.92500000005202
20
3.0000000000001332
42
-0.99999999999999989
0
LWPOLYLINE
5
165
100
AcDbEntity
8
0
100
AcDbPolyline
90
4
70
1
43
0.0
10
-239.92500000005299
20
3.0000000000001803
10
-230.92500000005302
20
3.0000000000002252
42
-0.99999999999999989
10
-230.92500000005302
20
-2.9999999999998144
10
-239.92500000005299
20
-2.999999999999845
42
-0.99999999999999989
0
LWPOLYLINE
5
166
100
AcDbEntity
8
0
100
AcDbPolyline
90
4
70
1
43
0.0
10
-222.57359312880479
20
-468.87362855391996
42
0.99999999999999989
10
-222.57359312880484
20
-482.87362855392007
10
-208.57359312880487
20
-482.87362855392007
42
0.99999999999999989
10
-208.57359312880487
20
-468.87362855391996
0
LWPOLYLINE
5
167
100
AcDbEntity
8
0
100
AcDbPolyline
90
4
70
1
43
0.0
10
264.99999999999801
20
-514.99999999999704
10
265
20
55.000000000000071
10
-265
20
55.000000000001307
10
-265.00000000000199
20
-514.99999999999602
0
LWPOLYLINE
5
168
100
AcDbEntity
8
0
100
AcDbPolyline
90
4
70
1
43
0.0
10
-4.5000000000000062
20
-468
10
4.5000000000000577
20
-468
42
-0.99999999999999989
10
4.4999999999999858
20
-474.00000000000006
10
-4.5000000000000506
20
-474.00000000000006
42
-0.99999999999999989
0
LWPOLYLINE
5
169
100
AcDbEntity
8
0
100
AcDbPolyline
90
4
70
1
43
0.0
10
208.57359312880607
20
-468.87362855391996
10
222.57359312880607
20
-468.87362855391996
42
-0.99999999999999989
10
222.57359312880598
20
-482.87362855392007
10
208.57359312880601
20
-482.87362855392007
42
-0.99999999999999989
0
ENDSEC
0
SECTION
2
OBJECTS
0
DICTIONARY
5
C
100
AcDbDictionary
3
ACAD_GROUP
350
D
3
ACAD_MLINESTYLE
350
17
0
DICTIONARY
5
D
100
AcDbDictionary
0
DICTIONARY
5
1A
330
C
100
AcDbDictionary
0
DICTIONARY
5
17
100
AcDbDictionary
0
ENDSEC
0
EOF
