0
SECTION
2
HEADER
9
$INSUNITS
70
4
9
$ACADVER
1
AC1014
9
$HANDSEED
5
FFFF
0
ENDSEC
0
SECTION
2
TABLES
0
TABLE
2
VPORT
5
8
100
AcDbSymbolTable
0
ENDTAB
0
TABLE
2
LTYPE
5
5
100
AcDbSymbolTable
0
LTYPE
5
14
100
AcDbSymbolTableRecord
100
AcDbLinetypeTableRecord
2
BYBLOCK
70
0
0
LTYPE
5
15
100
AcDbSymbolTableRecord
100
AcDbLinetypeTableRecord
2
BYLAYER
70
0
0
ENDTAB
0
TABLE
2
LAYER
5
2
100
AcDbSymbolTable
70
2
0
LAYER
5
50
100
AcDbSymbolTableRecord
100
AcDbLayerTableRecord
2
0
70
0
6
CONTINUOUS
0
ENDTAB
0
TABLE
2
STYLE
5
3
100
AcDbSymbolTable
70
1
0
STYLE
5
11
100
AcDbSymbolTableRecord
100
AcDbTextStyleTableRecord
2
STANDARD
70
0
0
ENDTAB
0
TABLE
2
VIEW
5
6
100
AcDbSymbolTable
70
0
0
ENDTAB
0
TABLE
2
UCS
5
7
100
AcDbSymbolTable
70
0
0
ENDTAB
0
TABLE
2
APPID
5
9
100
AcDbSymbolTable
70
2
0
APPID
5
12
100
AcDbSymbolTableRecord
100
AcDbRegAppTableRecord
2
ACAD
70
0
0
ENDTAB
0
TABLE
2
DIMSTYLE
5
A
100
AcDbSymbolTable
70
1
0
ENDTAB
0
TABLE
2
BLOCK_RECORD
5
1
100
AcDbSymbolTable
70
1
0
BLOCK_RECORD
5
1F
100
AcDbSymbolTableRecord
100
AcDbBlockTableRecord
2
*MODEL_SPACE
0
BLOCK_RECORD
5
1B
100
AcDbSymbolTableRecord
100
AcDbBlockTableRecord
2
*PAPER_SPACE
0
ENDTAB
0
ENDSEC
0
SECTION
2
BLOCKS
0
BLOCK
5
20
100
AcDbEntity
100
AcDbBlockBegin
2
*MODEL_SPACE
0
ENDBLK
5
21
100
AcDbEntity
100
AcDbBlockEnd
0
BLOCK
5
1C
100
AcDbEntity
100
AcDbBlockBegin
2
*PAPER_SPACE
0
ENDBLK
5
1D
100
AcDbEntity
100
AcDbBlockEnd
0
ENDSEC
0
SECTION
2
ENTITIES
0
LWPOLYLINE
5
100
100
AcDbEntity
8
0
100
AcDbPolyline
90
4
70
1
43
0.0
10
285.00000000000398
20
-514.99999999999977
10
285.00000000000398
20
54.99999999999978
10
-174.99999999999602
20
54.99999999999951
10
-174.99999999999599
20
-514.99999999999977
0
CIRCLE
5
101
100
AcDbEntity
8
0
100
AcDbCircle
10
-16.139664931128532
20
-128.94622941473088
30
-3.1974423109204508e-13
40
2.1500000000000021
210
0
220
3.944304526105059e-31
230
1
0
CIRCLE
5
102
100
AcDbEntity
8
0
100
AcDbCircle
10
255.00000000000014
20
-504.99999999999818
30
-8.1712414612411521e-13
40
1.650000000000027
210
0
220
3.944304526105059e-31
230
1
0
CIRCLE
5
103
100
AcDbEntity
8
0
100
AcDbCircle
10
-164.99999999999787
20
-484.99999999999949
30
-7.460698725481052e-13
40
1.6499999999999915
210
0
220
0
230
1
0
CIRCLE
5
104
100
AcDbEntity
8
0
100
AcDbCircle
10
274.99999999999818
20
-484.9999999999992
30
-7.460698725481052e-13
40
1.6499999999999915
210
0
220
0
230
1
0
CIRCLE
5
105
100
AcDbEntity
8
0
100
AcDbCircle
10
57.41033506886788
20
-128.94622941473088
30
2.8421709430404007e-13
40
2.1499999999999999
210
0
220
0
230
1
0
CIRCLE
5
106
100
AcDbEntity
8
0
100
AcDbCircle
10
-1.839664931119831
20
-450.2462294147274
30
-6.7501559897209518e-13
40
2.1499999999999986
210
0
220
0
230
1
0
CIRCLE
5
107
100
AcDbEntity
8
0
100
AcDbCircle
10
101.46033506888061
20
-346.44622941472784
30
-3.5527136788005009e-13
40
2.1499999999999999
210
0
220
0
230
1
0
CIRCLE
5
108
100
AcDbEntity
8
0
100
AcDbCircle
10
275.00000000000108
20
-230.00000000000233
30
3.5527136788005009e-14
40
1.6499999999999915
210
0
220
0
230
1
0
CIRCLE
5
109
100
AcDbEntity
8
0
100
AcDbCircle
10
-145
20
44.99999999999811
30
8.5265128291212022e-13
40
1.6500000000000092
210
0
220
0
230
1
0
CIRCLE
5
110
100
AcDbEntity
8
0
100
AcDbCircle
10
274.99999999999801
20
24.999999999999204
30
7.815970093361102e-13
40
1.6499999999999915
210
0
220
0
230
1
0
CIRCLE
5
111
100
AcDbEntity
8
0
100
AcDbCircle
10
255
20
44.99999999999811
30
8.5265128291212022e-13
40
1.650000000000027
210
0
220
3.944304526105059e-31
230
1
0
CIRCLE
5
112
100
AcDbEntity
8
0
100
AcDbCircle
10
55.000000000001997
20
-505.00000000000125
30
-7.815970093361102e-13
40
1.6500000000000004
210
0
220
0
230
1
0
CIRCLE
5
113
100
AcDbEntity
8
0
100
AcDbCircle
10
-164.99999999999801
20
24.999999999999204
30
7.815970093361102e-13
40
1.6499999999999915
210
0
220
0
230
1
0
CIRCLE
5
114
100
AcDbEntity
8
0
100
AcDbCircle
10
55.000000000001997
20
44.999999999998714
30
8.5265128291212022e-13
40
1.6500000000000004
210
0
220
0
230
1
0
CIRCLE
5
115
100
AcDbEntity
8
0
100
AcDbCircle
10
-164.99999999999892
20
-230.00000000000659
30
3.5527136788005009e-14
40
1.6499999999999915
210
0
220
0
230
1
0
CIRCLE
5
116
100
AcDbEntity
8
0
100
AcDbCircle
10
-16.139664931128532
20
-128.94622941473088
30
0
40
2.1500000000000021
210
0
220
3.9443045261050599e-31
230
1
0
CIRCLE
5
117
100
AcDbEntity
8
0
100
AcDbCircle
10
255.00000000000014
20
-504.99999999999818
30
0
40
1.6500000000000268
210
0
220
0
230
1
0
CIRCLE
5
118
100
AcDbEntity
8
0
100
AcDbCircle
10
-164.99999999999787
20
-484.99999999999949
30
0
40
1.6499999999999915
210
0
220
0
230
1
0
CIRCLE
5
119
100
AcDbEntity
8
0
100
AcDbCircle
10
274.99999999999818
20
-484.9999999999992
30
0
40
1.6499999999999915
210
0
220
0
230
1
0
CIRCLE
5
120
100
AcDbEntity
8
0
100
AcDbCircle
10
57.41033506886788
20
-128.94622941473088
30
0
40
2.1499999999999999
210
0
220
0
230
1
0
CIRCLE
5
121
100
AcDbEntity
8
0
100
AcDbCircle
10
-1.839664931119831
20
-450.2462294147274
30
0
40
2.1499999999999986
210
0
220
0
230
1
0
CIRCLE
5
122
100
AcDbEntity
8
0
100
AcDbCircle
10
101.46033506888061
20
-346.44622941472784
30
0
40
2.1499999999999999
210
0
220
0
230
1
0
CIRCLE
5
123
100
AcDbEntity
8
0
100
AcDbCircle
10
275.00000000000108
20
-230.00000000000233
30
0
40
1.6499999999999915
210
0
220
-0
230
1
0
CIRCLE
5
124
100
AcDbEntity
8
0
100
AcDbCircle
10
-145
20
44.99999999999811
30
0
40
1.6500000000000092
210
0
220
-0
230
1
0
CIRCLE
5
125
100
AcDbEntity
8
0
100
AcDbCircle
10
274.99999999999801
20
24.999999999999204
30
0
40
1.6499999999999915
210
0
220
-0
230
1
0
CIRCLE
5
126
100
AcDbEntity
8
0
100
AcDbCircle
10
255
20
44.99999999999811
30
0
40
1.6500000000000268
210
0
220
-0
230
1
0
CIRCLE
5
127
100
AcDbEntity
8
0
100
AcDbCircle
10
55.000000000001997
20
-505.00000000000125
30
0
40
1.6500000000000004
210
0
220
-0
230
1
0
CIRCLE
5
128
100
AcDbEntity
8
0
100
AcDbCircle
10
-164.99999999999801
20
24.999999999999204
30
0
40
1.6499999999999915
210
0
220
-0
230
1
0
CIRCLE
5
129
100
AcDbEntity
8
0
100
AcDbCircle
10
55.000000000001997
20
44.999999999998714
30
0
40
1.6500000000000004
210
0
220
-0
230
1
0
CIRCLE
5
130
100
AcDbEntity
8
0
100
AcDbCircle
10
-164.99999999999892
20
-230.00000000000659
30
0
40
1.6499999999999915
210
0
220
-0
230
1
0
LWPOLYLINE
5
131
100
AcDbEntity
8
0
100
AcDbPolyline
90
4
70
1
43
0.0
10
285.00000000000398
20
-514.99999999999977
10
285.00000000000398
20
54.999999999999787
10
-174.99999999999602
20
54.99999999999951
10
-174.99999999999599
20
-514.99999999999977
0
ENDSEC
0
SECTION
2
OBJECTS
0
DICTIONARY
5
C
100
AcDbDictionary
3
ACAD_GROUP
350
D
3
ACAD_MLINESTYLE
350
17
0
DICTIONARY
5
D
100
AcDbDictionary
0
DICTIONARY
5
1A
330
C
100
AcDbDictionary
0
DICTIONARY
5
17
100
AcDbDictionary
0
ENDSEC
0
EOF
