0
SECTION
2
HEADER
9
$INSUNITS
70
4
9
$ACADVER
1
AC1014
9
$HANDSEED
5
FFFF
0
ENDSEC
0
SECTION
2
TABLES
0
TABLE
2
VPORT
5
8
100
AcDbSymbolTable
0
ENDTAB
0
TABLE
2
LTYPE
5
5
100
AcDbSymbolTable
0
LTYPE
5
14
100
AcDbSymbolTableRecord
100
AcDbLinetypeTableRecord
2
BYBLOCK
70
0
0
LTYPE
5
15
100
AcDbSymbolTableRecord
100
AcDbLinetypeTableRecord
2
BYLAYER
70
0
0
ENDTAB
0
TABLE
2
LAYER
5
2
100
AcDbSymbolTable
70
2
0
LAYER
5
50
100
AcDbSymbolTableRecord
100
AcDbLayerTableRecord
2
0
70
0
6
CONTINUOUS
0
ENDTAB
0
TABLE
2
STYLE
5
3
100
AcDbSymbolTable
70
1
0
STYLE
5
11
100
AcDbSymbolTableRecord
100
AcDbTextStyleTableRecord
2
STANDARD
70
0
0
ENDTAB
0
TABLE
2
VIEW
5
6
100
AcDbSymbolTable
70
0
0
ENDTAB
0
TABLE
2
UCS
5
7
100
AcDbSymbolTable
70
0
0
ENDTAB
0
TABLE
2
APPID
5
9
100
AcDbSymbolTable
70
2
0
APPID
5
12
100
AcDbSymbolTableRecord
100
AcDbRegAppTableRecord
2
ACAD
70
0
0
ENDTAB
0
TABLE
2
DIMSTYLE
5
A
100
AcDbSymbolTable
70
1
0
ENDTAB
0
TABLE
2
BLOCK_RECORD
5
1
100
AcDbSymbolTable
70
1
0
BLOCK_RECORD
5
1F
100
AcDbSymbolTableRecord
100
AcDbBlockTableRecord
2
*MODEL_SPACE
0
BLOCK_RECORD
5
1B
100
AcDbSymbolTableRecord
100
AcDbBlockTableRecord
2
*PAPER_SPACE
0
ENDTAB
0
ENDSEC
0
SECTION
2
BLOCKS
0
BLOCK
5
20
100
AcDbEntity
100
AcDbBlockBegin
2
*MODEL_SPACE
0
ENDBLK
5
21
100
AcDbEntity
100
AcDbBlockEnd
0
BLOCK
5
1C
100
AcDbEntity
100
AcDbBlockBegin
2
*PAPER_SPACE
0
ENDBLK
5
1D
100
AcDbEntity
100
AcDbBlockEnd
0
ENDSEC
0
SECTION
2
ENTITIES
0
LWPOLYLINE
5
100
100
AcDbEntity
8
0
100
AcDbPolyline
90
10
70
1
43
0.0
10
9.9999999999966818
20
57.999999999997897
42
0.41421356237309614
10
12.999999999996668
20
54.999999999997854
10
264.99999999999596
20
54.999999999997243
10
264.99999999999625
20
174.99999999999795
10
-265.00000000000233
20
175.00000000000102
10
-265.00000000000261
20
54.999999999999233
10
-13.000000000003276
20
54.999999999997954
42
0.41421356237309659
10
-10.00000000000326
20
57.999999999997996
10
-10.000000000003237
20
74.999999999998636
42
-0.99999999999999989
10
9.999999999996712
20
74.999999999998622
0
CIRCLE
5
101
100
AcDbEntity
8
0
100
AcDbCircle
10
254.99999999999548
20
74.999999999999616
30
1.0658141036401503e-13
40
2.1499999999999986
210
-5.4274454011466881e-16
220
0
230
1
0
CIRCLE
5
102
100
AcDbEntity
8
0
100
AcDbCircle
10
-255.00000000000176
20
115.00000000000031
30
-1.4210854715202004e-13
40
2.1499999999999986
210
-5.4274454011466881e-16
220
0
230
1
0
CIRCLE
5
103
100
AcDbEntity
8
0
100
AcDbCircle
10
254.99999999999551
20
115
30
1.4210854715202004e-13
40
2.1499999999999986
210
-5.4274454011466881e-16
220
0
230
1
0
CIRCLE
5
104
100
AcDbEntity
8
0
100
AcDbCircle
10
-255.00000000000173
20
74.999999999999929
30
-1.4210854715202004e-13
40
2.1499999999999986
210
-5.4274454011466881e-16
220
0
230
1
0
CIRCLE
5
105
100
AcDbEntity
8
0
100
AcDbCircle
10
-234.99999995530698
20
165.00000000000733
30
-3.5527136788005009e-14
40
1.6499999999999915
210
-5.4274454011466684e-16
220
1.1832913578315054e-30
230
1
0
CIRCLE
5
106
100
AcDbEntity
8
0
100
AcDbCircle
10
-254.99999958277795
20
145.00000000000725
30
-7.1054273576010019e-14
40
1.6499999999999915
210
-5.4274454011466684e-16
220
1.1832913578315054e-30
230
1
0
CIRCLE
5
107
100
AcDbEntity
8
0
100
AcDbCircle
10
2.3284314458325139e-12
20
165.00000000000915
30
1.4210854715202004e-13
40
1.649999999999999
210
-5.4274454011466881e-16
220
0
230
1
0
CIRCLE
5
108
100
AcDbEntity
8
0
100
AcDbCircle
10
254.99999958275848
20
144.99999999999585
30
1.7763568394002505e-13
40
1.6499999999999915
210
-5.4274454011466881e-16
220
0
230
1
0
CIRCLE
5
109
100
AcDbEntity
8
0
100
AcDbCircle
10
234.99999995528756
20
164.99999999999608
30
2.1316282072803006e-13
40
1.6499999999999915
210
-5.4274454011466881e-16
220
0
230
1
0
CIRCLE
5
110
100
AcDbEntity
8
0
100
AcDbCircle
10
254.99999999999548
20
74.999999999999616
30
3.5527136788005009e-14
40
2.1500000000000199
210
1.9058237195092846e-21
220
-1.9775570486229749e-16
230
1
0
CIRCLE
5
111
100
AcDbEntity
8
0
100
AcDbCircle
10
-255.00000000000176
20
115.00000000000031
30
0
40
2.1500000000000199
210
1.9058237195092846e-21
220
-1.9775570486229749e-16
230
1
0
CIRCLE
5
112
100
AcDbEntity
8
0
100
AcDbCircle
10
254.99999999999551
20
115
30
0
40
2.1500000000000199
210
1.9058237195092846e-21
220
-1.9775570486229749e-16
230
1
0
CIRCLE
5
113
100
AcDbEntity
8
0
100
AcDbCircle
10
-255.00000000000173
20
74.999999999999929
30
3.5527136788005009e-14
40
2.1500000000000199
210
1.9058237195092846e-21
220
-1.9775570486229749e-16
230
1
0
CIRCLE
5
114
100
AcDbEntity
8
0
100
AcDbCircle
10
-234.99999995530698
20
165.00000000000733
30
3.5527136788005009e-14
40
1.6500000000000079
210
1.9058237195819012e-21
220
-1.9775570486229769e-16
230
1
0
CIRCLE
5
115
100
AcDbEntity
8
0
100
AcDbCircle
10
-254.99999958277795
20
145.00000000000725
30
3.5527136788005009e-14
40
1.6500000000000079
210
1.9058237195819012e-21
220
-1.9775570486229769e-16
230
1
0
LWPOLYLINE
5
116
100
AcDbEntity
8
0
100
AcDbPolyline
90
10
70
1
43
0.0
10
9.99999999999668
20
57.999999999997883
42
0.41421356237308637
10
12.999999999996668
20
54.99999999999784
10
264.99999999999596
20
54.999999999997257
10
264.99999999999625
20
174.99999999999795
10
-265.00000000000233
20
175.00000000000102
10
-265.00000000000261
20
54.999999999999218
10
-13.000000000003276
20
54.999999999997968
42
0.41421356237310636
10
-10.00000000000326
20
57.999999999997996
10
-10.000000000003235
20
74.999999999998892
42
-0.99999999999999989
10
9.999999999996712
20
74.999999999998636
0
CIRCLE
5
117
100
AcDbEntity
8
0
100
AcDbCircle
10
2.3284314458325126e-12
20
165.00000000000915
30
3.5527136788005009e-14
40
1.6500000000000155
210
1.9058237196204698e-21
220
-1.9775570486229749e-16
230
1
0
CIRCLE
5
118
100
AcDbEntity
8
0
100
AcDbCircle
10
254.99999958275848
20
144.99999999999585
30
3.5527136788005009e-14
40
1.6500000000000079
210
1.9058237196204698e-21
220
-1.9775570486229769e-16
230
1
0
CIRCLE
5
119
100
AcDbEntity
8
0
100
AcDbCircle
10
234.99999995528756
20
164.99999999999608
30
3.5527136788005009e-14
40
1.6500000000000079
210
1.9058237196204698e-21
220
-1.9775570486229769e-16
230
1
0
ENDSEC
0
SECTION
2
OBJECTS
0
DICTIONARY
5
C
100
AcDbDictionary
3
ACAD_GROUP
350
D
3
ACAD_MLINESTYLE
350
17
0
DICTIONARY
5
D
100
AcDbDictionary
0
DICTIONARY
5
1A
330
C
100
AcDbDictionary
0
DICTIONARY
5
17
100
AcDbDictionary
0
ENDSEC
0
EOF
