0
SECTION
2
HEADER
9
$INSUNITS
70
4
9
$ACADVER
1
AC1014
9
$HANDSEED
5
FFFF
0
ENDSEC
0
SECTION
2
TABLES
0
TABLE
2
VPORT
5
8
100
AcDbSymbolTable
0
ENDTAB
0
TABLE
2
LTYPE
5
5
100
AcDbSymbolTable
0
LTYPE
5
14
100
AcDbSymbolTableRecord
100
AcDbLinetypeTableRecord
2
BYBLOCK
70
0
0
LTYPE
5
15
100
AcDbSymbolTableRecord
100
AcDbLinetypeTableRecord
2
BYLAYER
70
0
0
ENDTAB
0
TABLE
2
LAYER
5
2
100
AcDbSymbolTable
70
2
0
LAYER
5
50
100
AcDbSymbolTableRecord
100
AcDbLayerTableRecord
2
0
70
0
6
CONTINUOUS
0
ENDTAB
0
TABLE
2
STYLE
5
3
100
AcDbSymbolTable
70
1
0
STYLE
5
11
100
AcDbSymbolTableRecord
100
AcDbTextStyleTableRecord
2
STANDARD
70
0
0
ENDTAB
0
TABLE
2
VIEW
5
6
100
AcDbSymbolTable
70
0
0
ENDTAB
0
TABLE
2
UCS
5
7
100
AcDbSymbolTable
70
0
0
ENDTAB
0
TABLE
2
APPID
5
9
100
AcDbSymbolTable
70
2
0
APPID
5
12
100
AcDbSymbolTableRecord
100
AcDbRegAppTableRecord
2
ACAD
70
0
0
ENDTAB
0
TABLE
2
DIMSTYLE
5
A
100
AcDbSymbolTable
70
1
0
ENDTAB
0
TABLE
2
BLOCK_RECORD
5
1
100
AcDbSymbolTable
70
1
0
BLOCK_RECORD
5
1F
100
AcDbSymbolTableRecord
100
AcDbBlockTableRecord
2
*MODEL_SPACE
0
BLOCK_RECORD
5
1B
100
AcDbSymbolTableRecord
100
AcDbBlockTableRecord
2
*PAPER_SPACE
0
ENDTAB
0
ENDSEC
0
SECTION
2
BLOCKS
0
BLOCK
5
20
100
AcDbEntity
100
AcDbBlockBegin
2
*MODEL_SPACE
0
ENDBLK
5
21
100
AcDbEntity
100
AcDbBlockEnd
0
BLOCK
5
1C
100
AcDbEntity
100
AcDbBlockBegin
2
*PAPER_SPACE
0
ENDBLK
5
1D
100
AcDbEntity
100
AcDbBlockEnd
0
ENDSEC
0
SECTION
2
ENTITIES
0
LWPOLYLINE
5
100
100
AcDbEntity
8
0
100
AcDbPolyline
90
4
70
1
43
0.0
10
265.00000000000011
20
-304.9999999997973
10
264.99999999999903
20
195.00000000020836
10
-265.00000000000023
20
195.00000000020725
10
-264.9999999999992
20
-304.99999999979838
0
CIRCLE
5
101
100
AcDbEntity
8
0
100
AcDbCircle
10
254.99999995525567
20
-274.99999965709384
30
6.9277916736609768e-13
40
1.6499999999999915
210
-2.0707529702370695e-15
220
-7.5842633830667623e-30
230
1
0
CIRCLE
5
102
100
AcDbEntity
8
0
100
AcDbCircle
10
234.99999965723066
20
-294.99999995511519
30
6.7501559897209518e-13
40
1.6499999999999915
210
-2.0707529702370695e-15
220
-7.5842633830667623e-30
230
1
0
ELLIPSE
5
103
100
AcDbEntity
8
0
100
AcDbEllipse
10
-234.99999965728387
20
-294.92295763361204
30
-3.0198066269804258e-13
11
-1.6500000000000001
21
5.5307022277705356e-16
31
0.0
40
0.99999990769586999
41
0
42
6.2831853071795862
0
CIRCLE
5
104
100
AcDbEntity
8
0
100
AcDbCircle
10
-4.548518427832871e-05
20
-294.99999999979815
30
1.7763568394002505e-13
40
1.6499999999999795
210
-3.5344091757643408e-17
220
-3.2310357433161121e-30
230
1
0
ELLIPSE
5
105
100
AcDbEntity
8
0
100
AcDbEllipse
10
-254.99999995530703
20
-274.9229591816715
30
-3.5527136788005009e-13
11
-1.6500000000000001
21
5.5307022277705356e-16
31
0.0
40
0.99999990769586999
41
0
42
6.2831853071795862
0
CIRCLE
5
106
100
AcDbEntity
8
0
100
AcDbCircle
10
254.99999999999898
20
-54.999999999798199
30
5.1514348342607263e-13
40
1.6499999999999915
210
-2.0707529702370707e-15
220
-3.1554436208840872e-30
230
1
0
CIRCLE
5
107
100
AcDbEntity
8
0
100
AcDbCircle
10
1.4386619841395567e-12
20
185.00000000021038
30
-1.9539925233402755e-13
40
1.6499999999999986
210
-3.5344091757644197e-17
220
-3.1554436208840837e-30
230
1
0
CIRCLE
5
108
100
AcDbEntity
8
0
100
AcDbCircle
10
-254.99999999999974
20
-54.999999999798199
30
-5.5067062021407764e-13
40
1.6499999999999915
210
-2.0707529702370707e-15
220
-3.1554436208840872e-30
230
1
0
CIRCLE
5
109
100
AcDbEntity
8
0
100
AcDbCircle
10
-234.99999965727386
20
184.99999995527941
30
-6.9277916736609768e-13
40
1.6499999999999915
210
-2.0707529702370707e-15
220
-3.1554436208840872e-30
230
1
0
CIRCLE
5
110
100
AcDbEntity
8
0
100
AcDbCircle
10
254.99999995529376
20
164.99999965725431
30
3.3750779948604759e-13
40
1.6499999999999915
210
-2.0707529702370707e-15
220
-3.1554436208840872e-30
230
1
0
CIRCLE
5
111
100
AcDbEntity
8
0
100
AcDbCircle
10
-254.99999995529535
20
164.99999965725434
30
-7.1054273576010019e-13
40
1.6499999999999915
210
-2.0707529702370707e-15
220
-3.1554436208840872e-30
230
1
0
CIRCLE
5
112
100
AcDbEntity
8
0
100
AcDbCircle
10
234.99999965727224
20
184.99999995527935
30
2.8421709430404007e-13
40
1.6499999999999915
210
-2.0707529702370707e-15
220
-3.1554436208840872e-30
230
1
0
CIRCLE
5
113
100
AcDbEntity
8
0
100
AcDbCircle
10
254.99999995525567
20
-274.99999965709384
30
3.5527136788005009e-14
40
1.6500000000000101
210
1.0467485291138192e-18
220
1.222951258432112e-16
230
1
0
CIRCLE
5
114
100
AcDbEntity
8
0
100
AcDbCircle
10
234.99999965723066
20
-294.99999995511519
30
3.5527136788005009e-14
40
1.6500000000000101
210
1.0467485291138192e-18
220
1.222951258432112e-16
230
1
0
ELLIPSE
5
115
100
AcDbEntity
8
0
100
AcDbEllipse
10
-234.99999965728387
20
-294.92295763361204
30
3.5527136788005009e-14
11
-1.6500000000000001
21
5.5307022277705484e-16
31
0.0
40
0.99999990769585734
41
0
42
6.2831853071795862
0
CIRCLE
5
116
100
AcDbEntity
8
0
100
AcDbCircle
10
-4.548518427832871e-05
20
-294.99999999979815
30
3.5527136788005009e-14
40
1.6499999999999981
210
1.0467485291137117e-18
220
1.222951258432112e-16
230
1
0
ELLIPSE
5
117
100
AcDbEntity
8
0
100
AcDbEllipse
10
-254.99999995530703
20
-274.9229591816715
30
3.5527136788005009e-14
11
-1.6500000000000001
21
5.5307022277705484e-16
31
0.0
40
0.99999990769585734
41
0
42
6.2831853071795862
0
CIRCLE
5
118
100
AcDbEntity
8
0
100
AcDbCircle
10
254.99999999999898
20
-54.999999999798199
30
0
40
1.6500000000000101
210
1.0467485291138192e-18
220
1.222951258432112e-16
230
1
0
CIRCLE
5
119
100
AcDbEntity
8
0
100
AcDbCircle
10
1.4386619841395563e-12
20
185.00000000021038
30
-1.7763568394002505e-14
40
1.650000000000017
210
1.0467485291137119e-18
220
1.2229512584321123e-16
230
1
0
CIRCLE
5
120
100
AcDbEntity
8
0
100
AcDbCircle
10
-254.99999999999974
20
-54.999999999798199
30
0
40
1.6500000000000101
210
1.0467485291138192e-18
220
1.222951258432112e-16
230
1
0
CIRCLE
5
121
100
AcDbEntity
8
0
100
AcDbCircle
10
-234.99999965727386
20
184.99999995527941
30
-1.7763568394002505e-14
40
1.6500000000000101
210
1.0467485291138192e-18
220
1.222951258432112e-16
230
1
0
CIRCLE
5
122
100
AcDbEntity
8
0
100
AcDbCircle
10
254.99999995529376
20
164.99999965725431
30
-1.7763568394002505e-14
40
1.6500000000000101
210
1.0467485291138192e-18
220
1.222951258432112e-16
230
1
0
CIRCLE
5
123
100
AcDbEntity
8
0
100
AcDbCircle
10
-254.99999995529535
20
164.99999965725434
30
-1.7763568394002505e-14
40
1.6500000000000101
210
1.0467485291138192e-18
220
1.222951258432112e-16
230
1
0
CIRCLE
5
124
100
AcDbEntity
8
0
100
AcDbCircle
10
234.99999965727224
20
184.99999995527935
30
-1.7763568394002505e-14
40
1.6500000000000101
210
1.0467485291138192e-18
220
1.222951258432112e-16
230
1
0
LWPOLYLINE
5
125
100
AcDbEntity
8
0
100
AcDbPolyline
90
4
70
1
43
0.0
10
265.00000000000011
20
-304.9999999997973
10
264.99999999999903
20
195.00000000020839
10
-265.00000000000023
20
195.00000000020725
10
-264.9999999999992
20
-304.99999999979843
0
ENDSEC
0
SECTION
2
OBJECTS
0
DICTIONARY
5
C
100
AcDbDictionary
3
ACAD_GROUP
350
D
3
ACAD_MLINESTYLE
350
17
0
DICTIONARY
5
D
100
AcDbDictionary
0
DICTIONARY
5
1A
330
C
100
AcDbDictionary
0
DICTIONARY
5
17
100
AcDbDictionary
0
ENDSEC
0
EOF
